<?xml version="1.0" encoding="UTF-8"?>
<svg width="31px" height="34px" viewBox="0 0 31 34" version="1.1" xmlns="http://www.w3.org/2000/svg" xmlns:xlink="http://www.w3.org/1999/xlink">
    <!-- Generator: Sketch 55.2 (78181) - https://sketchapp.com -->
    <title>Combined Shape</title>
    <desc>Created with Sketch.</desc>
    <defs>
        <linearGradient x1="50%" y1="100%" x2="50%" y2="0%" id="linearGradient-1">
            <stop stop-color="#0E85FF" offset="0%"></stop>
            <stop stop-color="#00F5AA" offset="100%"></stop>
        </linearGradient>
    </defs>
    <g id="Templates" stroke="none" stroke-width="1" fill="none" fill-rule="evenodd">
        <g id="设备画像1" transform="translate(-66.000000, -11.000000)" fill="url(#linearGradient-1)">
            <g id="编组-2">
                <g id="LOGO" transform="translate(66.000000, 11.000000)">
                    <path d="M14.9144444,15.5094371 C14.9144444,15.1829447 15.1766066,14.9182702 15.5,14.9182702 C15.8233934,14.9182702 16.0855556,15.1829447 16.0855556,15.5094371 L16.0855556,33.4088331 C16.0855556,33.7353256 15.8233934,34 15.5,34 C15.1766066,34 14.9144444,33.7353256 14.9144444,33.4088331 L14.9144444,15.5094371 Z M13.4333333,2.08647136 C13.4333333,0.934145047 14.3586115,0 15.5,0 C16.6413885,0 17.5666667,0.934145047 17.5666667,2.08647136 L17.5666667,11.8233377 C17.5666667,12.975664 16.6413885,13.9098091 15.5,13.9098091 C14.3586115,13.9098091 13.4333333,12.975664 13.4333333,11.8233377 L13.4333333,2.08647136 Z M1.48111111,23.3337047 C1.48111111,23.0072123 1.74327326,22.7425378 2.06666667,22.7425378 C2.39006007,22.7425378 2.65222222,23.0072123 2.65222222,23.3337047 L2.65222222,25.5692922 C2.65222222,25.8957847 2.39006007,26.1604591 2.06666667,26.1604591 C1.74327326,26.1604591 1.48111111,25.8957847 1.48111111,25.5692922 L1.48111111,23.3337047 Z M0,9.91073897 C0,8.75841265 0.925278184,7.8242676 2.06666667,7.8242676 C3.20805515,7.8242676 4.13333333,8.75841265 4.13333333,9.91073897 L4.13333333,19.6476053 C4.13333333,20.7999316 3.20805515,21.7340767 2.06666667,21.7340767 C0.925278184,21.7340767 0,20.7999316 0,19.6476053 L0,9.91073897 Z M28.3477778,23.3337047 C28.3477778,23.0072123 28.6099399,22.7425378 28.9333333,22.7425378 C29.2567267,22.7425378 29.5188889,23.0072123 29.5188889,23.3337047 L29.5188889,25.5692211 C29.5188889,25.8957136 29.2567267,26.160388 28.9333333,26.160388 C28.6099399,26.160388 28.3477778,25.8957136 28.3477778,25.5692211 L28.3477778,23.3337047 Z M26.8666667,9.91073897 C26.8666667,8.75841265 27.7919449,7.8242676 28.9333333,7.8242676 C30.0747218,7.8242676 31,8.75841265 31,9.91073897 L31,19.6476053 C31,20.7999316 30.0747218,21.7340767 28.9333333,21.7340767 C27.7919449,21.7340767 26.8666667,20.7999316 26.8666667,19.6476053 L26.8666667,9.91073897 Z M8.19777778,19.4041837 C8.19777778,19.0776912 8.45993993,18.8130168 8.78333333,18.8130168 C9.10672674,18.8130168 9.36888889,19.0776912 9.36888889,19.4041837 L9.36888889,29.4514398 C9.36888889,29.7779323 9.10672674,30.0426067 8.78333333,30.0426067 C8.45993993,30.0426067 8.19777778,29.7779323 8.19777778,29.4514398 L8.19777778,19.4041837 Z M6.71666667,5.9812179 C6.71666667,4.82889159 7.64194485,3.89474654 8.78333333,3.89474654 C9.92472182,3.89474654 10.85,4.82889159 10.85,5.9812179 L10.85,15.7180843 C10.85,16.8704106 9.92472182,17.8045556 8.78333333,17.8045556 C7.64194485,17.8045556 6.71666667,16.8704106 6.71666667,15.7180843 L6.71666667,5.9812179 Z M21.5966667,19.4041837 C21.5966667,19.0776912 21.8588288,18.8130168 22.1822222,18.8130168 C22.5056156,18.8130168 22.7677778,19.0776912 22.7677778,19.4041837 L22.7677778,29.4634275 C22.7677778,29.78992 22.5056156,30.0545944 22.1822222,30.0545944 C21.8588288,30.0545944 21.5966667,29.78992 21.5966667,29.4634275 L21.5966667,19.4041837 Z M20.1155556,5.9812179 C20.1155556,4.82889159 21.0408337,3.89474654 22.1822222,3.89474654 C23.3236107,3.89474654 24.2488889,4.82889159 24.2488889,5.9812179 L24.2488889,15.7180843 C24.2488889,16.8704106 23.3236107,17.8045556 22.1822222,17.8045556 C21.0408337,17.8045556 20.1155556,16.8704106 20.1155556,15.7180843 L20.1155556,5.9812179 Z" id="Combined-Shape"></path>
                </g>
            </g>
        </g>
    </g>
</svg>