<?xml version="1.0" standalone="no"?>

<!DOCTYPE svg PUBLIC "-//W3C//DTD SVG 1.1//EN"
        "http://www.w3.org/Graphics/SVG/1.1/DTD/svg11.dtd">

<svg width="100%" height="100%" version="1.1"
     xmlns="http://www.w3.org/2000/svg">

    <path d="m45.17095,18.295752a0.73,0.73 0 0 0 -0.64,-0.39l-1.42,0a0.7,0.7 0 0 0 -0.63,0.39l-0.72,1.26a0.87,0.87 0 0 0 -0.09,0.36a0.7,0.7 0 0 0 0.11,0.37l0.71,1.25a0.71,0.71 0 0 0 0.68,0.39l1.46,0a0.71,0.71 0 0 0 0.62,-0.38l0.71,-1.26a0.81,0.81 0 0 0 0.09,-0.37a0.75,0.75 0 0 0 -0.1,-0.38l-0.39,-0.62l-0.39,-0.62zm-1.29,-9.45l-3.86,-6.79a4,4 0 0 0 -3.5,-2.13l-7.93,0a4,4 0 0 0 -3.52,2.13l-8.39,14.71a2.53,2.53 0 0 1 -2.1,1.16l-5,0a2.52,2.52 0 0 1 -2.22,-1.35l-1.19,-2.16l-1.28,-2.18a2.51,2.51 0 0 1 -0.36,-1.31a2.67,2.67 0 0 1 0.33,-1.27l2.47,-4.38a2.57,2.57 0 0 1 2.22,-1.35l5,0a2.49,2.49 0 0 1 2.21,1.36l2.1,3.64l2.31,-4l-1.64,-2.87a4,4 0 0 0 -3.5,-2.13l-7.93,0a4,4 0 0 0 -3.5,2.12l-3.91,6.88a4.1,4.1 0 0 0 0,4.08l3.87,6.81a4,4 0 0 0 3.54,2.11l7.93,0a4,4 0 0 0 3.48,-2.08c5.78,-10.11 5.81,-10.15 8.3,-14.54a2.53,2.53 0 0 1 2.22,-1.38l5,0a2.52,2.52 0 0 1 2.24,1.39l2.44,4.31a2.6,2.6 0 0 1 0,2.59l-2.48,4.37a2.53,2.53 0 0 1 -2.17,1.34l-5,0a2.53,2.53 0 0 1 -2.22,-1.34l-1.22,-2.15l-0.85,-1.51l-2.29,4l1.62,2.83a4,4 0 0 0 3.49,2.17l7.93,0a4,4 0 0 0 3.47,-2.09l3.93,-6.91a4.12,4.12 0 0 0 -0.04,-4.08z"
          style="fill:#1593ff;stroke:red;stroke-width:0"/>

</svg>